<?xml version="1.0" encoding="UTF-8"?>
<svg version="1.1" xmlns="http://www.w3.org/2000/svg" width="764" height="536">
<path d="M0 0 C1.43693891 -0.00318143 2.87387482 -0.00811383 4.31080246 -0.01463282 C8.2367983 -0.02739394 12.1623782 -0.01537548 16.08834648 0.00089574 C20.33108661 0.01410198 24.5737822 0.00414144 28.81652832 -0.00286865 C37.1191328 -0.01293273 45.42157748 -0.00169445 53.7241621 0.01683195 C63.39836194 0.03763988 73.07252758 0.0374585 82.74674559 0.03648679 C100.0112104 0.0354863 117.27560102 0.053788 134.54003906 0.08285522 C151.28224031 0.11102849 168.02437628 0.12519669 184.76660156 0.12387085 C186.31339135 0.12375098 186.31339135 0.12375098 187.89142942 0.12362869 C188.9208618 0.12354798 189.95029418 0.12346727 191.01092148 0.12338412 C210.08605041 0.12200326 229.16115167 0.13379129 248.23627162 0.15169055 C254.97534572 0.15771524 261.71441472 0.15984872 268.45349121 0.16075516 C276.66919156 0.16212163 284.88484528 0.17108155 293.10052586 0.18942077 C297.2901017 0.19863357 301.47961805 0.20475633 305.66920471 0.20223236 C309.5083926 0.20003168 313.34744921 0.20714328 317.18660975 0.22152941 C319.22469474 0.22683736 321.26279797 0.2224543 323.30088425 0.21766531 C334.42019652 0.27615576 344.06837112 0.84517168 352.65332031 8.49447632 C362.8846391 19.75549957 360.94712182 35.42130557 360.92797852 49.6121521 C360.93233092 51.7469297 360.93751583 53.88170575 360.94346619 56.01647949 C360.95680701 61.78899331 360.9574406 67.56144146 360.95490289 73.33396769 C360.95383035 78.1601841 360.95872349 82.98638738 360.96350831 87.81260097 C360.97458536 99.19826871 360.97505031 110.58390346 360.96899414 121.96957397 C360.96294805 133.7047523 360.97528567 145.43981093 360.99656421 157.17496884 C361.01418563 167.26527676 361.02018091 177.35554659 361.01692647 187.44586933 C361.01511516 193.46608355 361.01773513 199.48621226 361.03164101 205.50641251 C361.04422432 211.16507812 361.04227035 216.82355692 361.02923012 222.4822197 C361.02686633 224.55542311 361.02959191 226.6286397 361.03785324 228.701828 C361.04833849 231.53812865 361.04020584 234.37380442 361.02754211 237.21008301 C361.0349164 238.02459085 361.04229068 238.83909868 361.04988843 239.67828858 C360.96286969 248.98224071 358.23222224 255.79655509 351.84863281 262.54525757 C338.30406514 274.57148403 314.60794745 270.63796845 297.85058594 270.62387085 C295.13814207 270.62467823 292.42569988 270.62697382 289.71325684 270.62918091 C283.12638768 270.63361058 276.53952997 270.63267294 269.95266038 270.62976827 C264.5711157 270.62749553 259.1895742 270.62720978 253.80802917 270.62829208 C253.03731448 270.62844532 252.26659978 270.62859855 251.4725301 270.62875643 C249.90555306 270.62907624 248.33857603 270.62940045 246.77159899 270.62972902 C232.08731665 270.63257761 217.40304056 270.62931049 202.71875924 270.62392865 C190.24446912 270.61949679 177.77018837 270.62020752 165.29589844 270.62484741 C150.72062194 270.63026647 136.14535097 270.63226591 121.5700736 270.62923515 C119.99712976 270.62891672 118.42418591 270.62860235 116.85124207 270.62829208 C116.07796303 270.62813781 115.304684 270.62798353 114.50797227 270.62782458 C109.18213736 270.62697839 103.85630615 270.62840823 98.5304718 270.63077164 C79.23770244 270.63834649 59.94583253 270.60087592 40.65332031 270.49447632 C39.33915005 270.48803699 38.02497978 270.48159765 36.67098618 270.47496319 C28.99582027 270.4354666 21.32144799 270.37331967 13.64677715 270.27699256 C11.31466505 270.25017925 8.98246975 270.22970775 6.65024281 270.2161696 C3.46301352 270.19589239 0.27706429 270.15084677 -2.90979004 270.09918213 C-3.82665872 270.09837041 -4.74352739 270.09755868 -5.68817997 270.09672236 C-14.9407404 269.89091227 -22.69554967 266.97506454 -29.34667969 260.49447632 C-29.67667969 259.83447632 -30.00667969 259.17447632 -30.34667969 258.49447632 C-30.82802085 258.05814062 -31.30936201 257.62180492 -31.80528927 257.17224693 C-39.19662226 249.12693852 -36.77496243 232.14190015 -36.75073242 222.00375366 C-36.75644249 219.84089303 -36.76340921 217.67803542 -36.77153015 215.5151825 C-36.78940222 209.67032292 -36.78830486 203.82561395 -36.78258777 197.9807353 C-36.77948854 193.09242418 -36.78559624 188.20414168 -36.79162651 183.31583464 C-36.8056494 171.78290952 -36.80412792 160.25005852 -36.79272461 148.71713257 C-36.78123412 136.83365722 -36.79533994 124.95040731 -36.82212108 113.06696165 C-36.84429034 102.84582508 -36.85091302 92.62475923 -36.84504467 82.40360034 C-36.84167825 76.30677614 -36.84406998 70.21009658 -36.8612957 64.11329269 C-36.87678312 58.38232996 -36.87278905 52.6517012 -36.85399055 46.92075157 C-36.85031029 44.82216772 -36.85339666 42.72355901 -36.86387634 40.62499809 C-36.96282595 19.16672267 -36.96282595 19.16672267 -30.55761719 9.90853882 C-29.95175781 9.31814819 -29.34589844 8.72775757 -28.72167969 8.11947632 C-28.13128906 7.51361694 -27.54089844 6.90775757 -26.93261719 6.28353882 C-18.44144298 0.40898022 -10.08342765 -0.0786962 0 0 Z M-11.34667969 26.49447632 C-12.19315453 32.12638968 -12.19315453 32.12638968 -12.47252083 37.66390038 C-12.47512858 38.41570088 -12.47773632 39.16750138 -12.48042309 39.94208372 C-12.47819237 40.74589275 -12.47596165 41.54970177 -12.47366333 42.37786865 C-12.47522332 43.24885716 -12.47678331 44.11984567 -12.47839057 45.01722777 C-12.48236529 47.92291008 -12.47922469 50.82853975 -12.47607422 53.73422241 C-12.47742976 55.82227611 -12.47921056 57.91032956 -12.48138428 59.99838257 C-12.48593866 65.65901766 -12.48417768 71.3196345 -12.48100519 76.98026991 C-12.47847332 82.90017718 -12.48082125 88.8200829 -12.48239136 94.73999023 C-12.48420977 104.67459392 -12.48181443 114.60919017 -12.47705078 124.54379272 C-12.47159981 136.04497477 -12.47337819 147.54613911 -12.47887719 159.04732072 C-12.48340694 168.91491325 -12.48405982 178.78250044 -12.48143852 188.65009367 C-12.47987614 194.54712122 -12.4796811 200.44414043 -12.48297501 206.34116745 C-12.48585202 211.87822555 -12.4838812 217.41526068 -12.47808075 222.95231628 C-12.47675262 224.99017422 -12.47714816 227.02803408 -12.47934341 229.06589127 C-12.48205262 231.83494938 -12.47867674 234.60393257 -12.47366333 237.37298584 C-12.47589405 238.1901792 -12.47812477 239.00737256 -12.48042309 239.84932935 C-12.80871915 243.47004739 -12.80871915 243.47004739 -11.34667969 246.49447632 C-9.54964788 246.59375226 -7.74866792 246.62187465 -5.94889641 246.62311077 C-4.18107852 246.62794744 -4.18107852 246.62794744 -2.37754714 246.63288182 C-0.41053146 246.63055892 -0.41053146 246.63055892 1.59622192 246.62818909 C2.99040408 246.63005525 4.38458572 246.63235516 5.77876651 246.63505441 C9.62813232 246.64120334 13.47747652 246.64103519 17.32684612 246.63986003 C21.4715172 246.63965679 25.61618119 246.64516753 29.760849 246.6499176 C37.88916149 246.65824247 46.01746674 246.6609733 54.14578314 246.66152998 C60.75229922 246.66200443 67.3588129 246.66405562 73.96532822 246.66723061 C92.68338377 246.67604347 111.40143359 246.68064919 130.11949123 246.67990013 C131.63477178 246.6798402 131.63477178 246.6798402 133.18066406 246.67977905 C134.1920808 246.67973817 135.20349753 246.67969729 136.24556325 246.67965517 C152.63019191 246.67924889 169.01479756 246.68881228 185.39941956 246.70291742 C202.21068114 246.71727591 219.02193151 246.72418784 235.83319938 246.72332364 C245.2762619 246.72299141 254.71930033 246.72574975 264.16235733 246.73650169 C272.20487661 246.74559993 280.2473609 246.74778765 288.28988309 246.74099227 C292.39397176 246.73772317 296.49799326 246.73768433 300.60207558 246.74634552 C304.36003529 246.75419464 308.1178744 246.75279536 311.87583111 246.74406139 C313.8778001 246.74179455 315.87977278 246.74936767 317.88172734 246.75730103 C323.8500274 246.73431729 329.03445214 246.58721259 334.65332031 244.49447632 C335.2137847 191.32312105 335.75742326 138.15167036 335.77670288 84.97690201 C335.77831155 82.07279365 335.7818595 79.16869332 335.78588867 76.2645874 C335.7917371 71.70595881 335.79197863 67.1473637 335.78763962 62.58873367 C335.78666029 60.94579714 335.78718904 59.30285878 335.7894783 57.65992355 C335.79207453 55.40755664 335.78817216 53.15528365 335.78271484 50.90292358 C335.78191925 49.65664688 335.78112366 48.41037018 335.78030396 47.12632751 C335.59155093 40.24137834 335.08295301 33.36859944 334.65332031 26.49447632 C220.47332031 26.49447632 106.29332031 26.49447632 -11.34667969 26.49447632 Z " fill="#000000" transform="translate(218.3466796875,25.505523681640625)"/>
<path d="M0 0 C58.41 0 116.82 0 177 0 C177.33 3.3 177.66 6.6 178 10 C191.93379331 10.02312032 205.8675821 10.04091349 219.80139065 10.05181217 C226.2706768 10.05704168 232.73994989 10.06414056 239.20922852 10.07543945 C245.446703 10.08626592 251.68416487 10.09227632 257.92164803 10.09487724 C260.30720277 10.09673193 262.69275679 10.10035336 265.0783062 10.10573006 C268.40695591 10.11293729 271.73555279 10.11399108 275.06420898 10.11352539 C276.5596096 10.1189183 276.5596096 10.1189183 278.08522034 10.12442017 C278.98690948 10.1230455 279.88859863 10.12167084 280.81761169 10.12025452 C281.9998112 10.12163721 281.9998112 10.12163721 283.20589352 10.12304783 C285.02321568 10.19580655 285.02321568 10.19580655 286 9 C286.23192865 7.48530552 286.41215238 5.96245438 286.5625 4.4375 C286.64628906 3.61121094 286.73007812 2.78492188 286.81640625 1.93359375 C286.87699219 1.29550781 286.93757813 0.65742188 287 0 C309.93027723 -0.02332651 332.86055252 -0.04097795 355.7908392 -0.05181217 C366.43697951 -0.05697566 377.08311246 -0.06401935 387.72924805 -0.07543945 C397.00486921 -0.08538469 406.28048505 -0.09185304 415.5561114 -0.09408849 C420.47067681 -0.09539588 425.38522698 -0.09848345 430.29978752 -0.10573006 C434.91994348 -0.11248775 439.54007783 -0.11461748 444.16023827 -0.11310768 C445.86106737 -0.11338412 447.56189716 -0.11539073 449.26272202 -0.11920547 C451.57454337 -0.12413881 453.88628181 -0.12299964 456.19810486 -0.12025452 C457.49506759 -0.12117631 458.79203032 -0.1220981 460.12829494 -0.12304783 C463 0 463 0 464 1 C464.71639225 8.44578173 464.66253851 14.02238653 460 20 C452.45400165 28.28419385 443.25702079 31.21664329 432.37535095 32.1254425 C430.88940867 32.25017314 430.88940867 32.25017314 429.37344736 32.37742358 C414.64846602 33.46950599 399.8708262 33.27589551 385.11504328 33.24679029 C380.59907747 33.2401208 376.08312123 33.24518147 371.56715393 33.24867249 C362.75435177 33.25367657 353.94158758 33.24812159 345.12879015 33.23882218 C334.84483059 33.22836577 324.56087894 33.22851026 314.27691507 33.22899476 C295.92068608 33.22949376 277.56447462 33.22037671 259.20825195 33.20581055 C241.43188152 33.19171201 223.65552649 33.18464054 205.87915039 33.18530273 C204.78307713 33.18534269 203.68700386 33.18538265 202.55771626 33.18542381 C200.91632821 33.18548435 200.91632821 33.18548435 199.24178082 33.1855461 C178.94306183 33.18623723 158.64434933 33.18034044 138.34563245 33.17139288 C131.19094248 33.1683872 124.03625372 33.16731461 116.88156319 33.16686058 C108.15838899 33.16617599 99.43522573 33.16167693 90.71205617 33.15252777 C86.26850067 33.14793578 81.82495909 33.14485463 77.38140106 33.14612198 C73.30375387 33.14722853 69.22613731 33.14362951 65.1484965 33.13647345 C63.68390337 33.13468172 62.21930704 33.13450831 60.75471384 33.13624074 C19.95302396 33.17911231 19.95302396 33.17911231 6.5390625 20.71875 C0.28989401 13.73998315 0 9.8444425 0 0 Z " fill="#000000" transform="translate(148,305)"/>
<path d="M0 0 C15.84 0.495 15.84 0.495 32 1 C36.07108038 9.14216076 39.90713354 17.19722666 43.4375 25.5625 C44.2031227 27.36282833 44.96875866 29.16315106 45.73483276 30.96328735 C46.56041147 32.90429051 47.38444628 34.84594498 48.20849609 36.78759766 C51.19635766 43.82062189 54.21374557 50.84104405 57.22634888 57.86349487 C58.8653655 61.68464202 60.50295481 65.50640066 62.140625 69.328125 C62.69823518 70.62923478 63.25585161 71.93034187 63.81347656 73.23144531 C64.40080566 74.60187988 64.40080566 74.60187988 65 76 C65.66 76 66.32 76 67 76 C67.21914062 75.42894531 67.43828125 74.85789062 67.6640625 74.26953125 C69.54609688 69.45733765 71.55488966 64.74060401 73.75 60.0625 C77.37294094 52.29775471 80.66133768 44.40086261 83.95898438 36.49365234 C85.6728773 32.38818745 87.39900517 28.28788812 89.125 24.1875 C89.42519043 23.47255371 89.72538086 22.75760742 90.03466797 22.02099609 C92.98781727 14.99835954 95.99873174 8.00295928 99 1 C109.56 1 120.12 1 131 1 C132.27558788 25.60062332 133.21193528 50.20169641 132.96313477 74.83789062 C132.95044556 76.5172168 132.95044556 76.5172168 132.9375 78.23046875 C132.92009766 79.69069458 132.92009766 79.69069458 132.90234375 81.18041992 C132.93457451 84.00197362 132.93457451 84.00197362 133.48413086 86.74975586 C134.17373648 91.0946303 134.23370257 95.38039953 134.31640625 99.7734375 C134.33718735 100.6971817 134.35796844 101.6209259 134.37937927 102.57266235 C134.44446119 105.50670344 134.50356643 108.44082962 134.5625 111.375 C134.6057246 113.37110235 134.64934012 115.36719627 134.69335938 117.36328125 C134.80083131 122.24210176 134.90021176 127.12099213 135 132 C126.42 132 117.84 132 109 132 C108.94465088 129.57245361 108.88930176 127.14490723 108.83227539 124.64379883 C108.64870997 116.62103502 108.46030016 108.59839024 108.26950932 100.57579517 C108.15398784 95.7119575 108.04009569 90.84809306 107.92993164 85.98413086 C107.82354727 81.28970053 107.7128771 76.59538897 107.59924126 71.90112877 C107.55665029 70.11062875 107.51560081 68.32009137 107.4761219 66.52952003 C107.42054114 64.02062149 107.35946937 61.51191201 107.29711914 59.00317383 C107.28201294 58.26374039 107.26690674 57.52430695 107.25134277 56.76246643 C107.15366341 53.06832203 106.86585432 49.59665307 106 46 C103.57728381 50.5762417 101.52781068 55.12714077 99.71875 59.98046875 C97.11582799 66.81080085 94.19937829 73.46677995 91.1875 80.125 C86.74536326 89.93236448 86.74536326 89.93236448 82.6875 99.90234375 C82.34436768 100.78196777 82.00123535 101.6615918 81.64770508 102.56787109 C81.02589527 104.1833434 80.42527286 105.80719755 79.8503418 107.43994141 C79.01171875 109.59765625 79.01171875 109.59765625 77 113 C73.11496551 114.67321372 69.52566266 115.28025611 65.3125 115.25 C64.58675781 115.25515625 63.86101562 115.2603125 63.11328125 115.265625 C60.47477471 114.93398277 59.21746061 114.52489166 57 113 C55.61878724 110.55900749 54.46643541 108.23548353 53.35546875 105.67578125 C52.85615593 104.56809639 52.85615593 104.56809639 52.34675598 103.43803406 C51.28153597 101.06807094 50.23416269 98.69070868 49.1875 96.3125 C48.49534447 94.76183188 47.80199628 93.21169554 47.10742188 91.66210938 C46.07503936 89.3577858 45.04393792 87.05296149 44.01828003 84.74563599 C41.26980045 78.56607325 38.4240884 72.4366286 35.53637695 66.32104492 C33.95613926 62.90519028 32.47099771 59.46402977 31 56 C29.93057767 53.63582555 28.85303936 51.27571486 27.76953125 48.91796875 C27 47 27 47 27 45 C26.34 45 25.68 45 25 45 C23.94151198 54.86641953 23.86928743 64.67134904 23.90234375 74.578125 C23.90421327 76.24249224 23.90563464 77.90686004 23.90663147 79.57122803 C23.91041465 83.91120983 23.9202081 88.25115714 23.93133545 92.59112549 C23.94164082 97.036006 23.94614847 101.48089219 23.95117188 105.92578125 C23.96183495 114.61720494 23.97939674 123.30859418 24 132 C15.42 132 6.84 132 -2 132 C-3.51235187 128.97529626 -3.04002396 125.88567603 -2.94580078 122.57666016 C-2.92802896 121.80748449 -2.91025715 121.03830883 -2.89194679 120.24582481 C-2.83134924 117.67675835 -2.76331089 115.10794291 -2.6953125 112.5390625 C-2.65124924 110.73137518 -2.60765829 108.92367629 -2.56451416 107.1159668 C-2.44791505 102.28212849 -2.32505305 97.44846783 -2.20104218 92.61481476 C-2.07506745 87.66175936 -1.95493108 82.7085632 -1.83447266 77.75537109 C-1.66824277 70.93859907 -1.50040923 64.12187096 -1.33006096 57.30520058 C-1.01402847 44.65850749 -0.71731832 32.01146915 -0.43597412 19.36395264 C-0.35922555 15.91641316 -0.28123848 12.46890229 -0.20315552 9.02139282 C-0.1351574 6.01426819 -0.06761601 3.00713325 0 0 Z " fill="#000000" transform="translate(26,373)"/>
<path d="M0 0 C7.99743882 -0.02319531 15.99486352 -0.04095173 23.99232769 -0.05181217 C27.70607888 -0.05702527 31.419807 -0.06409433 35.13354492 -0.07543945 C38.71914203 -0.08632426 42.304717 -0.09228869 45.89032936 -0.09487724 C47.25662395 -0.09672141 48.62291736 -0.1003226 49.9892025 -0.10573006 C51.90644519 -0.11301462 53.82371027 -0.11340869 55.7409668 -0.11352539 C56.83128708 -0.115746 57.92160736 -0.11796661 59.04496765 -0.12025452 C66.61755753 0.18791068 75.91916811 2.33802888 82 7 C82 7.66 82 8.32 82 9 C82.9590625 9.1546875 82.9590625 9.1546875 83.9375 9.3125 C84.618125 9.539375 85.29875 9.76625 86 10 C86.495 11.485 86.495 11.485 87 13 C87.99 13.433125 87.99 13.433125 89 13.875 C91 15 91 15 91.75 17.625 C91.8325 18.40875 91.915 19.1925 92 20 C92.66 20 93.32 20 94 20 C96.53336492 25.06672985 97.43045136 29.30854292 97.7890625 34.9609375 C97.78266534 36.99286288 97.78266534 36.99286288 99 38 C99.8653062 49.8526826 98.88211091 61.80681508 91.5 71.4375 C82.82231412 81.02750982 70.33422899 85.66385227 57.59838867 86.31713867 C53.08364408 86.43584837 48.57669845 86.35249653 44.0625 86.25 C42.49286182 86.22986603 40.92319814 86.21162767 39.35351562 86.1953125 C35.56836134 86.15194952 31.78447672 86.08332322 28 86 C27.29855228 95.76071114 26.89366496 105.46256294 26.875 115.25 C26.87048828 116.23750244 26.86597656 117.22500488 26.86132812 118.24243164 C26.86422852 119.64609985 26.86422852 119.64609985 26.8671875 121.078125 C26.86831543 121.90731445 26.86944336 122.73650391 26.87060547 123.59082031 C27.00753322 126.14026005 27.44189972 128.51154892 28 131 C23.52084672 131.02886338 19.04171709 131.04675187 14.5625 131.0625 C13.28310547 131.07087891 12.00371094 131.07925781 10.68554688 131.08789062 C9.47060547 131.09111328 8.25566406 131.09433594 7.00390625 131.09765625 C5.31503296 131.10551147 5.31503296 131.10551147 3.59204102 131.11352539 C1 131 1 131 0 130 C-0.09616807 128.31708304 -0.12187691 126.63010439 -0.12025452 124.94444275 C-0.12162918 123.84922806 -0.12300385 122.75401337 -0.12442017 121.62561035 C-0.12082489 120.41360962 -0.11722961 119.20160889 -0.11352539 117.95288086 C-0.11367142 116.68477066 -0.11381744 115.41666046 -0.1139679 114.11012268 C-0.11425585 110.62267578 -0.10835945 107.13526299 -0.10139394 103.64782405 C-0.09516007 100.00696277 -0.09455658 96.36610078 -0.09336853 92.72523499 C-0.09025531 85.82623028 -0.08204205 78.92724135 -0.07201904 72.0282436 C-0.06085761 64.17589315 -0.05534738 56.32354197 -0.05032361 48.47118556 C-0.03985943 32.31411447 -0.02226017 16.15705924 0 0 Z M27 24 C26.91134792 26.8843382 26.88478704 29.74462158 26.90234375 32.62890625 C26.9037587 33.49313705 26.90517365 34.35736786 26.90663147 35.24778748 C26.91224761 38.01939292 26.92480281 40.7909188 26.9375 43.5625 C26.94251292 45.4368478 26.94707619 47.31119685 26.95117188 49.18554688 C26.96222228 53.79039544 26.9794977 58.39518421 27 63 C31.14425088 63.07465394 35.28813624 63.12883721 39.43286133 63.16479492 C40.84015734 63.17979877 42.24740724 63.20020863 43.65454102 63.22631836 C45.68777907 63.26307665 47.72039432 63.27980984 49.75390625 63.29296875 C50.97408447 63.3086792 52.1942627 63.32438965 53.45141602 63.34057617 C60.16530227 62.69620938 65.32477511 59.78148 70 55 C73.27787926 49.25754986 73.95645195 43.29606335 72.53125 36.89453125 C70.97644639 31.9617317 68.59335887 28.55628809 64 26 C56.25224661 22.73987996 48.73506694 22.60141458 40.4375 22.75 C39.25091797 22.75515625 38.06433594 22.7603125 36.84179688 22.765625 C31.55927039 22.31067087 31.55927039 22.31067087 27 24 Z " fill="#000000" transform="translate(529,374)"/>
<path d="M0 0 C0.495 1.485 0.495 1.485 1 3 C1.66 3 2.32 3 3 3 C2.40074509 5.88305128 1.54853768 7.99659057 -0.06640625 10.453125 C-0.46923828 11.071875 -0.87207031 11.690625 -1.28710938 12.328125 C-1.70798828 12.96234375 -2.12886719 13.5965625 -2.5625 14.25 C-2.98724609 14.8996875 -3.41199219 15.549375 -3.84960938 16.21875 C-4.8947306 17.81578918 -5.94669837 19.4083442 -7 21 C-11.23265138 20.4476452 -14.55512631 19.45003289 -18.375 17.5625 C-28.79239646 12.72435346 -40.13628061 10.6392291 -51.375 14.4375 C-60.32213393 18.66172061 -65.05786609 26.80126277 -68.80859375 35.62109375 C-73.95384585 50.21336609 -72.90891248 66.78350759 -67 81 C-65.78708545 83.21012126 -64.52213056 85.27109406 -63.05078125 87.31640625 C-61.88354888 89.18658153 -61.42832899 90.84894122 -61 93 C-60.01 93 -59.02 93 -58 93 C-58 93.66 -58 94.32 -58 95 C-57.34 95.103125 -56.68 95.20625 -56 95.3125 C-52.93476759 96.01494909 -50.17104786 97.01951853 -47.2578125 98.18359375 C-35.02418859 102.60717056 -24.38820899 100.15752441 -12.8046875 94.92578125 C-9.65002669 93.88447956 -8.10167755 93.85699426 -5 95 C-3 98 -3 98 -3 102 C-2.34 102 -1.68 102 -1 102 C-0.01 106.455 -0.01 106.455 1 111 C1.66 111 2.32 111 3 111 C1.15660739 115.69317794 -1.75008464 116.77000001 -6.140625 118.83203125 C-24.15699978 126.19117887 -46.31673866 126.42783042 -64.4140625 119.18359375 C-76.92397753 113.45775651 -85.66178008 105.22926481 -92 93 C-92.37898437 92.28199219 -92.75796875 91.56398438 -93.1484375 90.82421875 C-98.46683245 79.88751935 -99.47093802 68.43442677 -99.3125 56.4375 C-99.31572266 55.21353516 -99.31894531 53.98957031 -99.32226562 52.72851562 C-99.22112441 35.45175725 -96.00034833 19.06704596 -84 6 C-83.25363281 5.08347656 -83.25363281 5.08347656 -82.4921875 4.1484375 C-62.91734112 -18.18065862 -22.91314616 -14.85047518 0 0 Z " fill="#000000" transform="translate(740,383)"/>
<path d="M0 0 C0 0.66 0 1.32 0 2 C0.556875 2.04125 1.11375 2.0825 1.6875 2.125 C5.14656833 3.43383667 7.11739352 5.92130143 9 9 C9.8125 12.375 9.8125 12.375 10 15 C10.66 15 11.32 15 12 15 C14.30109471 21.04037362 14.12813545 26.66397069 13.97265625 33.0859375 C13.65877091 35.89225121 13.65877091 35.89225121 15 37 C15.09340434 38.62674778 15.11745171 40.25754051 15.11352539 41.88696289 C15.11341209 43.44846825 15.11341209 43.44846825 15.11329651 45.04151917 C15.10813522 46.1737944 15.10297394 47.30606964 15.09765625 48.47265625 C15.0962413 49.62543564 15.09482635 50.77821503 15.09336853 51.96592712 C15.08775005 55.66481064 15.07519442 59.36363464 15.0625 63.0625 C15.05748738 65.56315017 15.05292406 68.06380129 15.04882812 70.56445312 C15.0386235 76.70967705 15.01905169 82.85477155 15 89 C7.08 89 -0.84 89 -9 89 C-9 86.36 -9 83.72 -9 81 C-9.99966797 81.70576172 -9.99966797 81.70576172 -11.01953125 82.42578125 C-22.1277867 89.92967969 -32.86365441 92.81050158 -46.21484375 90.42578125 C-51.49981315 89.19109742 -56.3052284 87.73861677 -61 85 C-61 84.34 -61 83.68 -61 83 C-61.5775 82.773125 -62.155 82.54625 -62.75 82.3125 C-67.22257699 79.70349675 -69.37688307 75.7810641 -71 71 C-72.65627567 60.80082876 -71.87977172 52.98992518 -67.4375 43.75 C-59.49910316 34.79385997 -48.39040675 32.56005187 -36.83984375 31.7890625 C-30.73611293 31.70510472 -24.81963736 32.06012088 -19 34 C-18.01 34 -17.02 34 -16 34 C-15.67 34.66 -15.34 35.32 -15 36 C-13.68 36 -12.36 36 -11 36 C-11.11169484 26.16528597 -11.11169484 26.16528597 -16 18 C-26.36491266 11.98835066 -36.9339226 14.37165309 -48 17 C-48.90363281 17.21398437 -49.80726563 17.42796875 -50.73828125 17.6484375 C-52.49706079 18.07954154 -54.24970776 18.53563675 -56 19 C-59.25643639 12.83603112 -61.72401366 6.58583281 -64 0 C-44.17181935 -7.76659377 -18.90310166 -12.45886246 0 0 Z M-42.25 51.875 C-46.18364597 56.48047224 -46.18364597 56.48047224 -46.6875 62.3125 C-46.460625 63.199375 -46.23375 64.08625 -46 65 C-45.34 65 -44.68 65 -44 65 C-43.938125 65.61875 -43.87625 66.2375 -43.8125 66.875 C-43.17824983 69.21655145 -43.17824983 69.21655145 -40.75 70.25 C-38.02003872 70.99453489 -35.81296916 71.1607411 -33 71 C-32.67 71.66 -32.34 72.32 -32 73 C-24.01083016 71.45797273 -18.41719407 69.20995418 -13 63 C-10.79236335 60.01369695 -10.79236335 60.01369695 -10 57 C-10.91593163 53.10729057 -13.82397484 51.2158315 -17 49 C-25.46613619 45.01510172 -35.03360917 45.86134097 -42.25 51.875 Z " fill="#000000" transform="translate(250,416)"/>
<path d="M0 0 C24.75 0 49.5 0 75 0 C75 22.37777778 75 22.37777778 69.4375 28.1875 C66.40019108 31.45970871 63.49655466 34.77909973 60.6875 38.25 C56.9218704 42.89557053 53.06498598 47.45146502 49.17675781 51.99389648 C45.32153359 56.53619709 41.69442122 61.2338905 38.17211914 66.03857422 C37.15988596 67.39396223 36.08526659 68.70235247 35 70 C34.34 70 33.68 70 33 70 C32.505 71.98 32.505 71.98 32 74 C46.85 74 61.7 74 77 74 C77.33 80.6 77.66 87.2 78 94 C51.27 94 24.54 94 -3 94 C-3 74.09090909 -3 74.09090909 1.74609375 69.19140625 C2.48988281 68.46824219 3.23367188 67.74507813 4 67 C5.80860178 64.88679161 7.59726563 62.76359991 9.375 60.625 C10.31906574 59.51326298 11.26437743 58.4025828 12.2109375 57.29296875 C19.17273733 49.1901413 19.17273733 49.1901413 25.625 40.69140625 C26.07875 40.13324219 26.5325 39.57507813 27 39 C27.66 39 28.32 39 29 39 C29.23460937 38.28070313 29.46921875 37.56140625 29.7109375 36.8203125 C31.66464904 32.54582845 34.86905349 29.65956278 38.1015625 26.3046875 C40.31789948 24.11172406 40.31789948 24.11172406 40 21 C20.695 20.505 20.695 20.505 1 20 C-1.98514842 14.02970315 0 6.6749948 0 0 Z " fill="#000000" transform="translate(287,411)"/>
<path d="M0 0 C1.125 1.83984375 1.125 1.83984375 1 4 C-0.58203125 6.9453125 -0.58203125 6.9453125 -2.8125 10.125 C-3.54082031 11.17945313 -4.26914062 12.23390625 -5.01953125 13.3203125 C-7 16 -7 16 -9 18 C-12.36516201 17.80204929 -14.93272116 16.58495824 -17.875 15.0625 C-24.42923414 11.6808595 -31.00040114 9.62887255 -38.3359375 11.640625 C-40.57766743 12.38061352 -42.78911632 13.17306095 -45 14 C-45.99 14.33 -46.98 14.66 -48 15 C-48 15.66 -48 16.32 -48 17 C-48.66 17 -49.32 17 -50 17 C-50.42925781 17.87398438 -50.42925781 17.87398438 -50.8671875 18.765625 C-51.55964927 20.13144615 -52.28665985 21.48125377 -53.0703125 22.796875 C-57.38693728 30.7906246 -57.23214188 40.32048212 -55.33984375 49.04296875 C-53.00376433 55.72759429 -49.2688492 59.72270316 -43.07421875 63.02734375 C-34.77802574 66.41769005 -24.19929068 66.44565467 -15.8125 63.4375 C-15.15894531 63.14746094 -14.50539063 62.85742188 -13.83203125 62.55859375 C-11.51544809 61.85225816 -10.2552932 62.18584851 -8 63 C-3.44506651 66.37946678 -1.09599611 71.85450136 1 77 C1 77.99 1 78.98 1 80 C-16.24939034 88.90631787 -34.348921 90.36344542 -53 85 C-65.94971089 79.99014702 -74.18627298 72.65792946 -80 60 C-85.24825046 45.72550317 -84.92447089 27.58477061 -78.98046875 13.6015625 C-77.52390423 10.5793275 -75.86048221 7.79072332 -74 5 C-73.34 5 -72.68 5 -72 5 C-71.74992187 4.401875 -71.49984375 3.80375 -71.2421875 3.1875 C-67.45259014 -3.48600479 -58.78537343 -6.05203012 -51.89453125 -8.23828125 C-34.5556456 -12.8011459 -14.92560787 -10.16165104 0 0 Z " fill="#000000" transform="translate(511,419)"/>
<path d="M0 0 C0.99 0 1.98 0 3 0 C3.50779623 1.52338868 4.0155216 3.046801 4.52294922 4.5703125 C4.97262835 5.91835867 5.42350902 7.26600453 5.87548828 8.61328125 C7.01125058 12.00408508 8.12515605 15.39748257 9.19921875 18.80859375 C10.1915603 21.92408467 11.22886223 25.015096 12.32861328 28.09423828 C12.78380548 29.38632204 13.22179988 30.6845696 13.64404297 31.98779297 C16.00010946 39.1079263 18.43888215 44.74803183 25.19213867 48.52954102 C28.71882194 50.24476994 32.31641094 51.65969714 36 53 C36.88768066 53.33 37.77536133 53.66 38.68994141 54 C44.42357819 56.11297171 50.19036585 58.10648961 56 60 C56 60.99 56 61.98 56 63 C55.25951416 63.21615967 54.51902832 63.43231934 53.75610352 63.6550293 C50.35486564 64.65476859 46.95876274 65.67099364 43.5625 66.6875 C42.39783203 67.02716797 41.23316406 67.36683594 40.03320312 67.71679688 C26.64815375 71.57534187 26.64815375 71.57534187 17 81 C15.5146795 84.36020861 14.27283619 87.78247005 13.0625 91.25 C12.71767578 92.21695801 12.37285156 93.18391602 12.01757812 94.18017578 C9.01995465 102.69538751 6.40015132 111.29945147 4 120 C3.01 120 2.02 120 1 120 C0.72849121 119.15405273 0.45698242 118.30810547 0.17724609 117.43652344 C-0.85517395 114.23571548 -1.89623621 111.03797222 -2.94287109 107.84179688 C-3.39025994 106.4698471 -3.83438624 105.09682819 -4.27490234 103.72265625 C-8.7041687 87.65053717 -8.7041687 87.65053717 -18.5 75.0625 C-20.61453359 73.95640823 -20.61453359 73.95640823 -23 73 C-24.41152344 72.39478516 -24.41152344 72.39478516 -25.8515625 71.77734375 C-36.5554786 67.6005173 -47.78729134 65.36834582 -59 63 C-58 61 -58 61 -56.29199219 60.27319336 C-55.55110352 60.04768799 -54.81021484 59.82218262 -54.046875 59.58984375 C-53.20970947 59.32727783 -52.37254395 59.06471191 -51.51000977 58.79418945 C-50.59920654 58.51148193 -49.68840332 58.22877441 -48.75 57.9375 C-27.72087263 52.62420147 -27.72087263 52.62420147 -12.0625 39.5625 C-11.30035365 37.39987534 -10.61981623 35.20763229 -10 33 C-9.50562116 31.58257846 -9.00106626 30.16867954 -8.48828125 28.7578125 C-5.11756798 19.32368389 -2.43548184 9.71327462 0 0 Z " fill="#000000" transform="translate(455,98)"/>
<path d="M0 0 C8.58 0 17.16 0 26 0 C26 31.35 26 62.7 26 95 C17.42 95 8.84 95 0 95 C-1.86455346 93.13544654 -1.12658685 90.46593652 -1.13552856 87.98478699 C-1.13350433 87.12033463 -1.1314801 86.25588226 -1.12939453 85.36523438 C-1.13114685 84.45961258 -1.13289917 83.55399078 -1.13470459 82.6209259 C-1.13912454 79.61184807 -1.13618461 76.60282848 -1.1328125 73.59375 C-1.1334855 71.51249175 -1.13445549 69.43123357 -1.13571167 67.34997559 C-1.13718884 62.98184462 -1.13503348 58.61373407 -1.13037109 54.24560547 C-1.1246738 48.63285447 -1.1279527 43.02015128 -1.13394356 37.40740204 C-1.13754866 33.10788611 -1.13641082 28.80838162 -1.13381577 24.50886536 C-1.13314636 22.43870539 -1.1339754 20.3685444 -1.13629532 18.29838562 C-1.13882102 15.41048414 -1.13498242 12.52266122 -1.12939453 9.63476562 C-1.13141876 8.77031326 -1.13344299 7.9058609 -1.13552856 7.01521301 C-1.11426237 1.11426237 -1.11426237 1.11426237 0 0 Z " fill="#010101" transform="translate(384,411)"/>
<path d="M0 0 C1.87939453 0.21557617 1.87939453 0.21557617 4 1 C5.09326172 2.9777832 5.09326172 2.9777832 5.9296875 5.55078125 C6.25066406 6.47697266 6.57164062 7.40316406 6.90234375 8.35742188 C7.5465385 10.31458384 8.18721299 12.27290829 8.82421875 14.23242188 C10.33648713 18.57944034 11.31334309 21.38718748 14.796875 24.49609375 C18.27724999 26.13017225 21.73363108 27.51330867 25.375 28.75 C27.24285156 29.39195312 27.24285156 29.39195312 29.1484375 30.046875 C30.08945312 30.36140625 31.03046875 30.6759375 32 31 C32 31.99 32 32.98 32 34 C31.14277344 34.24234375 30.28554688 34.4846875 29.40234375 34.734375 C28.25894531 35.06953125 27.11554688 35.4046875 25.9375 35.75 C24.24947266 36.23726562 24.24947266 36.23726562 22.52734375 36.734375 C15.54081945 39.02846042 15.54081945 39.02846042 10.71557617 44.1640625 C9.56149619 46.78635075 8.56985881 49.42048512 7.625 52.125 C7.28339844 53.04410156 6.94179688 53.96320313 6.58984375 54.91015625 C5.96099619 56.60282499 5.34217043 58.299276 4.73681641 60.00048828 C4 62 4 62 3 64 C2.34 64 1.68 64 1 64 C-0.14928044 60.91794058 -1.29381663 57.83414029 -2.4375 54.75 C-2.92573242 53.44095703 -2.92573242 53.44095703 -3.42382812 52.10546875 C-3.73642578 51.26113281 -4.04902344 50.41679687 -4.37109375 49.546875 C-4.8031311 48.38430176 -4.8031311 48.38430176 -5.24389648 47.19824219 C-6 45 -6 45 -6.46069336 42.78613281 C-6.63866455 42.19670898 -6.81663574 41.60728516 -7 41 C-9.28666516 39.78885574 -9.28666516 39.78885574 -12 39 C-12.80179687 38.67 -13.60359375 38.34 -14.4296875 38 C-19.23939128 36.03309238 -23.97134764 34.31182235 -29 33 C-29 32.01 -29 31.02 -29 30 C-28.41508789 29.79955078 -27.83017578 29.59910156 -27.22753906 29.39257812 C-24.5568342 28.45820221 -21.90434394 27.47984046 -19.25 26.5 C-18.32960938 26.18546875 -17.40921875 25.8709375 -16.4609375 25.546875 C-11.95790862 23.85008151 -8.79317781 22.59151839 -6.53125 18.1875 C-5.98473395 16.80540157 -5.4733336 15.40884036 -5 14 C-4.74959961 13.35482422 -4.49919922 12.70964844 -4.24121094 12.04492188 C-3.53692134 10.21168354 -2.89240273 8.3558301 -2.25 6.5 C-1.82203125 5.2728125 -1.3940625 4.045625 -0.953125 2.78125 C-0.63859375 1.8634375 -0.3240625 0.945625 0 0 Z " fill="#010101" transform="translate(304,135)"/>
<path d="M0 0 C0.99 0.33 1.98 0.66 3 1 C4.0625 3.51171875 4.0625 3.51171875 5 6.6875 C5.34933594 7.77546875 5.69867188 8.8634375 6.05859375 9.984375 C6.72978452 12.13441348 7.39736155 14.28558147 8.0625 16.4375 C11.9023399 21.51599793 18.90823951 23.66067677 25 25 C24.83203125 26.87109375 24.83203125 26.87109375 24 29 C21.63671875 30.16015625 21.63671875 30.16015625 18.6875 31.0625 C13.35179285 32.68552973 13.35179285 32.68552973 9 36 C7.67488271 38.64911947 6.70838403 41.38813847 5.75 44.1875 C5.481875 44.93708984 5.21375 45.68667969 4.9375 46.45898438 C4.28014678 48.30192108 3.6385097 50.15045024 3 52 C2.01 52 1.02 52 0 52 C-0.56267578 50.33710938 -0.56267578 50.33710938 -1.13671875 48.640625 C-1.65281444 47.17678995 -2.16978801 45.7132642 -2.6875 44.25 C-2.93177734 43.52039063 -3.17605469 42.79078125 -3.42773438 42.0390625 C-5.10282918 37.37424151 -6.60831535 34.65543723 -11 32 C-14.09473401 30.68900528 -14.09473401 30.68900528 -17.3125 29.75 C-18.91544922 29.24726562 -18.91544922 29.24726562 -20.55078125 28.734375 C-21.35902344 28.49203125 -22.16726563 28.2496875 -23 28 C-23 27.01 -23 26.02 -23 25 C-21.97519531 24.68289062 -20.95039063 24.36578125 -19.89453125 24.0390625 C-10.75475706 21.18830104 -10.75475706 21.18830104 -4.75 14.1875 C-4.10951563 12.47867733 -3.5251029 10.74773055 -3 9 C-2.68933594 8.12730469 -2.37867188 7.25460938 -2.05859375 6.35546875 C-1.31875511 4.24875333 -0.63577818 2.13993631 0 0 Z " fill="#000000" transform="translate(380,79)"/>
<path d="M0 0 C2.92618942 2.17588444 4.12490118 3.38515865 5.4375 6.8125 C5.98445966 11.4236738 6.00177839 15.41665346 4.25 19.75 C1.44329103 22.94384124 -1.2297994 24.61340206 -5.46484375 25.24609375 C-11.61321801 25.25400672 -15.87564296 25.2590054 -20.5625 20.8125 C-23.98017418 16.93913593 -24.01751542 13.15034195 -23.84765625 8.1875 C-23.46761057 5.02218805 -22.70785586 3.17978922 -20.5625 0.8125 C-14.14423254 -2.35190713 -6.7061571 -2.2353857 0 0 Z " fill="#000000" transform="translate(406.5625,372.1875)"/>
<path d="M0 0 C0.99 0 1.98 0 3 0 C3.23332031 0.86882812 3.46664063 1.73765625 3.70703125 2.6328125 C5.83167656 9.34458955 7.42196426 13.41135147 13.8125 16.8125 C15.52353366 17.58325625 17.24783335 18.32797811 19 19 C19 19.66 19 20.32 19 21 C17.5437455 21.67119549 16.08492133 22.33681807 14.625 23 C13.81289063 23.37125 13.00078125 23.7425 12.1640625 24.125 C10 25 10 25 8 25 C7.731875 25.845625 7.46375 26.69125 7.1875 27.5625 C5.9521405 31.13854067 4.523012 34.53860908 3 38 C2.01 38 1.02 38 0 38 C-0.24234375 37.32453125 -0.4846875 36.6490625 -0.734375 35.953125 C-3.1248289 29.10894461 -3.1248289 29.10894461 -8 24 C-10.63900021 22.83782491 -13.25712302 21.91429233 -16 21 C-15.796875 19.125 -15.796875 19.125 -15 17 C-12.890625 15.9375 -12.890625 15.9375 -10.25 15 C-5.37910274 12.80181571 -3.87758156 10.6129246 -1.875 5.6875 C-1.21585867 3.80326495 -0.57891237 1.91041082 0 0 Z " fill="#000000" transform="translate(376,199)"/>
<path d="" fill="#000000" transform="translate(0,0)"/>
</svg>
